<?xml version="1.0" encoding="UTF-8"?><svg width="26" height="26" version="1.1" viewBox="0 0 1000 997.52" xmlns="http://www.w3.org/2000/svg" xmlns:cc="http://creativecommons.org/ns#" xmlns:dc="http://purl.org/dc/elements/1.1/" xmlns:rdf="http://www.w3.org/1999/02/22-rdf-syntax-ns#"><metadata><rdf:RDF><cc:Work rdf:about=""><dc:format>image/svg+xml</dc:format><dc:type rdf:resource="http://purl.org/dc/dcmitype/StillImage"/><dc:title/></cc:Work></rdf:RDF></metadata><g transform="translate(-55.5 -1002.3)"><path d="m55.5 1002.3h997.52v538.49l-49.374 77.148 49.374 68.661v313.22h-997.52v-507.63l30.859-35.488-30.859-33.945z" fill="#016fd0"/><path d="m249.14 1697.4v-156.61h165.82l17.791 23.192 18.379-23.192h601.89v145.81s-15.74 10.644-33.945 10.801h-333.28l-20.058-24.687v24.687h-65.73v-42.142s-8.9788 5.8825-28.39 5.8825h-22.373v36.259h-99.52l-17.765-23.69-18.038 23.69z" fill="#fff"/><path d="m55.5 1422.8 37.393-87.177h64.668l21.221 48.833v-48.833h80.388l12.633 35.295 12.247-35.295h360.86v17.744s18.97-17.744 50.146-17.744l117.08 0.4092 20.855 48.194v-48.603h67.273l18.515 27.683v-27.683h67.89v156.61h-67.89l-17.744-27.773v27.773h-98.838l-9.9396-24.687h-26.571l-9.7778 24.687h-67.029c-26.826 0-43.974-17.382-43.974-17.382v17.382h-101.06l-20.058-24.687v24.687h-375.8l-9.9327-24.687h-26.486l-9.8625 24.687h-46.199z" fill="#fff"/><path d="m106.13 1354.9-50.435 117.26h32.836l9.3059-23.482h54.1l9.2577 23.482h33.559l-50.387-117.26h-38.236zm18.66 27.291 16.49 41.033h-33.029l16.538-41.033z" fill="#016fd0"/><path d="m198.22 1472.2v-117.26l46.662 0.1733 27.14 75.604 26.49-75.778h46.288v117.26h-29.316v-86.405l-31.076 86.405h-25.71l-31.162-86.405v86.405z" fill="#016fd0"/><path d="m364.86 1472.2v-117.26h95.663v26.23h-66.038v20.058h64.495v24.687h-64.495v20.83h66.038v25.459z" fill="#016fd0"/><path d="m477.5 1354.9v117.26h29.316v-41.66h12.344l35.15 41.66h35.825l-38.574-43.202c15.831-1.3359 32.161-14.923 32.161-36.018 0-24.676-19.368-38.043-40.985-38.043h-65.238zm29.316 26.23h33.511c8.0388 0 13.887 6.2882 13.887 12.344 0 7.7905-7.5767 12.344-13.453 12.344h-33.945v-24.687z" fill="#016fd0"/><path d="m625.62 1472.2h-29.933v-117.26h29.933z" fill="#016fd0"/><path d="m696.6 1472.2h-6.4611c-31.262 0-50.242-24.629-50.242-58.15 0-34.349 18.768-59.114 58.246-59.114h32.402v27.773h-33.587c-16.026 0-27.36 12.507-27.36 31.63 0 22.71 12.96 32.248 31.63 32.248h7.7147z" fill="#016fd0"/><path d="m760.39 1354.9-50.435 117.26h32.836l9.3059-23.482h54.1l9.2577 23.482h33.559l-50.387-117.26h-38.236zm18.66 27.291 16.49 41.033h-33.029l16.538-41.033z" fill="#016fd0"/><path d="m852.43 1472.2v-117.26h37.272l47.59 73.676v-73.676h29.316v117.26h-36.066l-48.796-75.604v75.604z" fill="#016fd0"/><path d="m269.2 1677.4v-117.26h95.663v26.23h-66.038v20.058h64.495v24.687h-64.495v20.83h66.038v25.459z" fill="#016fd0"/><path d="m737.95 1677.4v-117.26h95.663v26.23h-66.038v20.058h64.187v24.687h-64.187v20.83h66.038v25.459z" fill="#016fd0"/><path d="m368.57 1677.4 46.578-57.909-47.687-59.355h36.934l28.4 36.693 28.496-36.693h35.488l-47.06 58.632 46.664 58.632h-36.929l-27.575-36.115-26.905 36.115z" fill="#016fd0"/><path d="m499.87 1560.1v117.26h30.088v-37.031h30.859c26.111 0 45.903-13.852 45.903-40.792 0-22.316-15.523-39.442-42.094-39.442h-64.756zm30.088 26.519h32.498c8.4355 0 14.465 5.1701 14.465 13.501 0 7.8262-5.9992 13.501-14.562 13.501h-32.402v-27.002z" fill="#016fd0"/><path d="m619.45 1560.1v117.26h29.316v-41.66h12.344l35.15 41.66h35.825l-38.574-43.203c15.831-1.3361 32.161-14.923 32.161-36.018 0-24.676-19.368-38.043-40.985-38.043h-65.238zm29.316 26.23h33.511c8.0388 0 13.887 6.2881 13.887 12.344 0 7.7906-7.5767 12.344-13.453 12.344h-33.945v-24.687z" fill="#016fd0"/><path d="m847.19 1677.4v-25.459h58.671c8.6812 0 12.44-4.6912 12.44-9.8363 0-4.9296-3.747-9.9134-12.44-9.9134h-26.513c-23.046 0-35.88-14.041-35.88-35.121 0-18.802 11.753-36.934 45.999-36.934h57.089l-12.344 26.384h-49.374c-9.4382 0-12.344 4.9526-12.344 9.6821 0 4.8612 3.5904 10.222 10.801 10.222h27.773c25.69 0 36.838 14.572 36.838 33.656 0 20.516-12.422 37.32-38.236 37.32z" fill="#016fd0"/><path d="m954.78 1677.4v-25.459h58.671c8.6812 0 12.44-4.6912 12.44-9.8363 0-4.9296-3.7471-9.9134-12.44-9.9134h-26.513c-23.046 0-35.88-14.041-35.88-35.121 0-18.802 11.753-36.934 45.999-36.934h57.089l-12.344 26.384h-49.374c-9.4382 0-12.344 4.9526-12.344 9.6821 0 4.8612 3.5904 10.222 10.801 10.222h27.773c25.69 0 36.838 14.572 36.838 33.656 0 20.516-12.422 37.32-38.236 37.32z" fill="#016fd0"/></g></svg>