<?xml version="1.0" encoding="UTF-8"?><svg width="44" height="14" version="1.1" viewBox="0 0 500.00001 162.81594" xmlns="http://www.w3.org/2000/svg" xmlns:cc="http://creativecommons.org/ns#" xmlns:dc="http://purl.org/dc/elements/1.1/" xmlns:rdf="http://www.w3.org/1999/02/22-rdf-syntax-ns#"><defs><clipPath id="b"><path d="m413.74 90.435c-0.057-4.494 4.005-7.002 7.065-8.493 3.144-1.53 4.2-2.511 4.188-3.879-0.024-2.094-2.508-3.018-4.833-3.054-4.056-0.063-6.414 1.095-8.289 1.971l-1.461-6.837c1.881-0.867 5.364-1.623 8.976-1.656 8.478 0 14.025 4.185 14.055 10.674 0.033 8.235-11.391 8.691-11.313 12.372 0.027 1.116 1.092 2.307 3.426 2.61 1.155 0.153 4.344 0.27 7.959-1.395l1.419 6.615c-1.944 0.708-4.443 1.386-7.554 1.386-7.98 0-13.593-4.242-13.638-10.314m34.827 9.744c-1.548 0-2.853-0.903-3.435-2.289l-12.111-28.917h8.472l1.686 4.659h10.353l0.978-4.659h7.467l-6.516 31.206h-6.894m1.185-8.43 2.445-11.718h-6.696l4.251 11.718m-46.284 8.43-6.678-31.206h8.073l6.675 31.206h-8.07m-11.943 0-8.403-21.24-3.399 18.06c-0.399 2.016-1.974 3.18-3.723 3.18h-13.737l-0.192-0.906c2.82-0.612 6.024-1.599 7.965-2.655 1.188-0.645 1.527-1.209 1.917-2.742l6.438-24.903h8.532l13.08 31.206h-8.478"/></clipPath><linearGradient id="a" x2="1" gradientTransform="matrix(84.2 31.009 31.009 -84.2 19.512 -27.419)" gradientUnits="userSpaceOnUse"><stop stop-color="#222357" offset="0"/><stop stop-color="#254aa5" offset="1"/></linearGradient></defs><metadata><rdf:RDF><cc:Work rdf:about=""><dc:format>image/svg+xml</dc:format><dc:type rdf:resource="http://purl.org/dc/dcmitype/StillImage"/><dc:title/></cc:Work></rdf:RDF></metadata><g transform="translate(-333.7 -536.42)"><g transform="matrix(4.9847 0 0 -4.9847 -1470.1 1039.6)"><g clip-path="url(#b)"><g transform="translate(351.61 96.896)"><path d="m0 0 98.437 36.252 22.394-60.809-98.436-36.252" fill="url(#a)"/></g></g></g></g></svg>