<svg xmlns="http://www.w3.org/2000/svg" viewBox="0 0 512 512"><path d="M512 256C512 115.17 397.53 0 256 0S0 115.17 0 256s115.17 256 256 256 256-115.17 256-256zM256 77.7a38.85 38.85 0 1 1-38.85 38.85c0-20.81 17.34-38.85 38.85-38.85zM217.15 417a19.48 19.48 0 0 1-18 11.79 18.47 18.47 0 0 1-8.33-2.08 20 20 0 0 1-9.71-27.06s38.16-87.41 45.09-119.33c2.78-11.1 4.16-40.93 4.86-54.81 0-4.86-2.78-9-6.94-10.41l-86-25c-11.1-3.47-17.34-15.26-13.88-25.67s15.26-15.26 25.67-12.49c0 0 78.4 25 106.15 25s107.53-25.67 107.53-25.67c10.41-2.78 22.2 3.47 25 13.88s-3.47 22.2-13.88 25l-85.41 25.61c-4.16 1.39-7.63 5.55-6.94 10.41.69 13.88 2.08 43.71 4.86 54.81 6.94 31.91 45.09 119.33 45.09 119.33a20.59 20.59 0 0 1-9.71 27.06 18.47 18.47 0 0 1-8.33 2.08c-7.63 0-15.26-4.16-18-11.79L256 333.7z"/></svg>