<svg id="Layer_1" data-name="Layer 1" xmlns="http://www.w3.org/2000/svg" viewBox="0 0 98.58 36.74"><defs><style>.cls-1{fill:#fff;}.cls-2{fill:#0078a9;}</style></defs><title>Amex</title><path class="cls-1" d="M399.53,730.34v-1.25l-0.6,1.25h-5.19L393.09,729v1.35h-9.71l-1.15-2.71h-1.94l-1.21,2.71h-5v-8.2l3.69-8.35h7.06l1,2.37v-2.35h8.64l1.9,4,1.86-4h27.28a4.64,4.64,0,0,1,2.37.64v-0.64h6.87v0.9a5.59,5.59,0,0,1,3.06-.9h12.12l1.07,2.4v-2.4h7.77l1.41,2.4v-2.4h7.43v16.56h-7.63l-1.79-2.89v2.87h-9.48l-1.33-3h-1.86l-1.25,3h-5.74a7.43,7.43,0,0,1-3.75-1.18v1.18H423.29v-3.86a0.43,0.43,0,0,0-.43-0.52h-0.42v4.38H399.53Z" transform="translate(-374.04 -713.79)"/><path class="cls-1" d="M393.83,733.92h15l2.17,2.45,2.22-2.45h11.55a5.32,5.32,0,0,1,2.11.58v-0.58h10.28a5.25,5.25,0,0,1,2.4.65v-0.65h13.22v0.6a4.47,4.47,0,0,1,2.21-.6h8.61v0.6a5.26,5.26,0,0,1,2.23-.6h6.76v15.6a3.72,3.72,0,0,1-2.73,1h-8.91V750a4.57,4.57,0,0,1-2.14.5H435.14v-4c0-.4-0.17-0.47-0.53-0.47h-0.33v4.5h-7.4v-4.47a5,5,0,0,1-2.19.44H422v4h-9.12L410.84,748l-2.22,2.53H393.83V733.92Z" transform="translate(-374.04 -713.79)"/><polygon class="cls-2" points="67.12 22.62 76.54 22.62 76.54 25.15 70 25.15 70 27.35 76.36 27.35 76.36 29.58 70 29.58 70 31.89 76.54 31.89 76.54 34.36 67.12 34.36 67.12 22.62"/><path class="cls-2" d="M468.78,741c3.54,0.18,3.84,2,3.84,3.84a3.43,3.43,0,0,1-3.69,3.38h-6.05v-2.52h4.72c0.8,0,2,0,2-1.13,0-.54-0.21-0.88-1.06-1-0.38-.05-1.78-0.13-2-0.14-3.2-.08-3.95-1.68-3.95-3.61a3.24,3.24,0,0,1,3.44-3.4h6.05V739h-4.43c-1,0-2.09-.12-2.09,1,0,0.72.54,0.87,1.22,0.93C467,740.91,468.57,741,468.78,741Z" transform="translate(-374.04 -713.79)"/><path class="cls-2" d="M457.93,741c3.54,0.18,3.84,2,3.84,3.84a3.43,3.43,0,0,1-3.7,3.38H452v-2.52h4.72c0.8,0,2,0,2-1.13,0-.54-0.21-0.88-1.06-1-0.38-.05-1.78-0.13-2-0.14-3.2-.08-3.94-1.68-3.94-3.61a3.23,3.23,0,0,1,3.43-3.4h6.05V739h-4.43c-1,0-2.1-.12-2.1,1,0,0.72.54,0.87,1.22,0.93C456.15,740.91,457.72,741,457.93,741Z" transform="translate(-374.04 -713.79)"/><path class="cls-2" d="M423.75,736.44H413.64l-3.3,3.64-3.2-3.67H395.78v11.74h11l3.46-3.88,3.38,3.91h5.53v-4H423c1.49,0,4.22-.05,4.22-4.17A3.25,3.25,0,0,0,423.75,736.44Zm-18.49,9.25h-6.64v-2.32H405v-2.23h-6.36v-2.2l7,0,2.81,3.2Zm11,1.36-4.14-4.9,4.14-4.59v9.49Zm6.5-5.28h-3.59V739h3.6A1.42,1.42,0,1,1,422.78,741.78Z" transform="translate(-374.04 -713.79)"/><path class="cls-2" d="M437.68,742.83a3.21,3.21,0,0,0,2-3.25c0-2.51-2-3.14-3.46-3.14h-7.49v11.74h2.88V744h3.77c1,0,1.39,1,1.41,2l0.08,2.15h2.8l-0.1-2.41C439.56,743.88,439,743,437.68,742.83Zm-2.49-1.21H431.6V739h3.6a1.38,1.38,0,0,1,1.59,1.35C436.79,741.09,436.37,741.62,435.19,741.62Z" transform="translate(-374.04 -713.79)"/><rect class="cls-2" x="55.83" y="2.35" width="2.88" height="11.75"/><polygon class="cls-2" points="32.24 2.37 41.66 2.37 41.66 4.89 35.12 4.89 35.12 7.1 41.48 7.1 41.48 9.32 35.12 9.32 35.12 11.64 41.66 11.64 41.66 14.11 32.24 14.11 32.24 2.37"/><path class="cls-2" d="M426.37,722.55a3.2,3.2,0,0,0,2-3.25c0-2.52-2-3.14-3.46-3.14h-7.49V727.9h2.88v-4.14h3.77c1,0,1.39,1,1.42,2l0.08,2.15h2.8l-0.1-2.41C428.26,723.6,427.73,722.71,426.37,722.55Zm-2.49-1.21h-3.59v-2.66h3.6a1.38,1.38,0,0,1,1.58,1.35C425.48,720.81,425.06,721.34,423.88,721.34Z" transform="translate(-374.04 -713.79)"/><path class="cls-2" d="M399.63,716.16L396.09,724l-3.53-7.87H388v11.31l-5-11.31H379.2l-5.14,11.74h3l1.12-2.62H384l1.14,2.62h5.8v-8.71l3.85,8.71h2.62l3.94-8.57v8.57h2.88V716.16h-4.6Zm-20.31,6.59,1.72-4.1,1.79,4.1h-3.51Z" transform="translate(-374.04 -713.79)"/><path class="cls-2" d="M462.5,716.15v8.13l-4.86-8.13h-4.26v11l-4.91-11h-3.81l-4,9.09s-1.68,0-1.85,0c-0.7-.14-1.78-0.63-1.79-2.7v-0.85c0-2.75,1.5-3,3.41-3h1.78v-2.55h-3.76c-1.31,0-4.16,1-4.26,5.82-0.07,3.25,1.35,5.93,4.54,5.93h3.8l1.13-2.62h5.75l1.14,2.62h5.69v-8.6l5.19,8.6h3.93V716.15H462.5Zm-17.7,6.6,1.72-4.1,1.81,4.1h-3.52Z" transform="translate(-374.04 -713.79)"/></svg>