<?xml version="1.0" encoding="UTF-8"?>
<svg width="18px" height="18px" viewBox="0 0 18 18" version="1.1" xmlns="http://www.w3.org/2000/svg" xmlns:xlink="http://www.w3.org/1999/xlink">
    <!-- Generator: Sketch 52.5 (67469) - http://www.bohemiancoding.com/sketch -->
    <title>account</title>
    <desc>Created with Sketch.</desc>
    <g id="Design" stroke="none" stroke-width="1" fill="none" fill-rule="evenodd">
        <g id="product_details_desktop_1280" transform="translate(-1026.000000, -19.000000)" fill="#FFFFFF" stroke="#FFFFFF" stroke-width="0.7">
            <g id="UI/Global/Navigation">
                <g id="account" transform="translate(1027.000000, 16.000000)">
                    <path d="M8,12 C6.7648,12 5.76,10.9952 5.76,9.76 C5.76,8.5248 6.7648,7.52 8,7.52 C9.23488,7.52 10.24,8.5248 10.24,9.76 C10.24,10.9952 9.23488,12 8,12 M13.41664,16.97696 C13.22336,14.70304 11.62752,12.82624 9.49856,12.21472 C10.32544,11.70784 10.88,10.79872 10.88,9.76 C10.88,8.17216 9.58816,6.88 8,6.88 C6.41216,6.88 5.12,8.17216 5.12,9.76 C5.12,10.79872 5.67456,11.70784 6.50144,12.21472 C4.37216,12.82624 2.77632,14.70272 2.58336,16.97696 C1.37792,15.6656 0.64,13.91744 0.64,12 C0.64,7.94176 3.94176,4.64 8,4.64 C12.05856,4.64 15.36,7.94176 15.36,12 C15.36,13.91744 14.62208,15.6656 13.41664,16.97696 M3.17728,17.55264 C3.19072,17.51744 3.2,17.48 3.2,17.44 C3.2,14.79328 5.35328,12.64 8,12.64 C10.64672,12.64 12.8,14.79328 12.8,17.44 C12.8,17.48 12.80928,17.51744 12.82272,17.55296 C11.52992,18.6768 9.84384,19.36 8,19.36 C6.15616,19.36 4.47008,18.6768 3.17728,17.55264 M8,4 C3.5888,4 0,7.5888 0,12 C0,16.4112 3.5888,20 8,20 C12.4112,20 16,16.4112 16,12 C16,7.5888 12.4112,4 8,4"></path>
                </g>
            </g>
        </g>
    </g>
</svg>