<svg version="1.1" xmlns="http://www.w3.org/2000/svg" xmlns:xlink="http://www.w3.org/1999/xlink" viewBox="0 0 100 100">
<path d="M98.4,23.6l-71.8-10l1.5,7.8l63.6,8.9L88,53.7l-60.4,6.6l-11-57.1c-0.2-1-1.2-1.8-2.2-1.8H0v7.5h10.1L12.3,20
	l8.6,44.7l-7.3,17.3c-0.4,0.9,0.1,1.7,1.1,1.7h12.1c-0.4,1.2-0.7,2.4-0.7,3.7c0,6.2,5,11.2,11.2,11.2c6.2,0,11.2-5,11.2-11.2
	c0-1.3-0.3-2.6-0.7-3.7h23.8c-0.4,1.2-0.7,2.4-0.7,3.7c0,6.2,5,11.2,11.2,11.2c6.2,0,11.2-5,11.2-11.2c0-6.2-5-11.2-11.2-11.2h-58
	l3.5-8.3l65-7.2c1-0.1,2-1,2.1-2.1l5.2-32.9C100.1,24.7,99.4,23.7,98.4,23.6z M82.1,83.6c2.1,0,3.7,1.7,3.7,3.7s-1.7,3.7-3.7,3.7
	s-3.7-1.7-3.7-3.7S80.1,83.6,82.1,83.6z M37.3,83.6c2.1,0,3.7,1.7,3.7,3.7s-1.7,3.7-3.7,3.7s-3.7-1.7-3.7-3.7S35.2,83.6,37.3,83.6z"
	/>
</svg>
