<?xml version="1.0" encoding="UTF-8"?>
<svg width="16px" height="20px" viewBox="0 0 16 20" version="1.1" xmlns="http://www.w3.org/2000/svg" xmlns:xlink="http://www.w3.org/1999/xlink">
    <!-- Generator: Sketch 52.5 (67469) - http://www.bohemiancoding.com/sketch -->
    <title>cart</title>
    <desc>Created with Sketch.</desc>
    <g id="Design" stroke="none" stroke-width="1" fill="none" fill-rule="evenodd">
        <g id="product_details_desktop_1280" transform="translate(-1152.000000, -18.000000)" fill="#FFFFFF" stroke="#FFFFFF" stroke-width="0.25">
            <g id="UI/Global/Navigation">
                <g id="cart" transform="translate(1153.000000, 16.000000)">
                    <path d="M7.07249396,4.1139732 C8.63137459,4.1139732 9.89961646,5.38221507 9.89961646,6.9410957 L9.89961646,7.60419527 L4.24537147,7.60419527 L4.24537147,6.9410957 C4.24537147,5.38221507 5.51361333,4.1139732 7.07249396,4.1139732 M3.68795871,10.6767839 C3.99479142,10.6767839 4.24451915,10.4270562 4.24451915,10.1202235 L4.24451915,8.71816847 L9.89876415,8.71816847 L9.89876415,10.1202235 C9.89876415,10.4270562 10.1484919,10.6767839 10.4553246,10.6767839 C10.7621573,10.6767839 11.011885,10.4270562 11.011885,10.1202235 L11.011885,8.71816847 L13.0301624,8.71816847 L13.0301624,19.8885837 L1.1139732,19.8885837 L1.1139732,8.71816847 L3.13139827,8.71816847 L3.13139827,10.1202235 C3.13139827,10.4270562 3.381126,10.6767839 3.68795871,10.6767839 M13.5884275,7.60504759 L11.0135897,7.60504759 L11.0135897,6.9410957 C11.0135897,4.76854965 9.24589232,3 7.07249396,3 C4.89994791,3 3.13139827,4.76769733 3.13139827,6.9410957 L3.13139827,7.60419527 L0.556560443,7.60419527 C0.249727733,7.60419527 0,7.85392301 0,8.16075572 L0,20.4442919 C0,20.7511246 0.249727733,21 0.556560443,21 L13.5875752,21 C13.8944079,21 14.1441356,20.7511246 14.1441356,20.4442919 L14.1441356,8.16160803 C14.1449879,7.85477532 13.8952602,7.60504759 13.5884275,7.60504759"></path>
                </g>
            </g>
        </g>
    </g>
</svg>