<?xml version="1.0" encoding="UTF-8"?>
<svg width="16px" height="16px" viewBox="0 0 16 16" version="1.1" xmlns="http://www.w3.org/2000/svg" xmlns:xlink="http://www.w3.org/1999/xlink">
    <!-- Generator: Sketch 52.5 (67469) - http://www.bohemiancoding.com/sketch -->
    <title>contact</title>
    <desc>Created with Sketch.</desc>
    <g id="Design" stroke="none" stroke-width="1" fill="none" fill-rule="evenodd">
        <g id="product_details_desktop_1280" transform="translate(-1152.000000, -91.000000)" fill="#FFFFFF">
            <g id="UI/Global/Navigation">
                <g id="contact" transform="translate(1152.000000, 88.000000)">
                    <path d="M7.95428571,16.9733333 C7.10095238,16.9733333 6.27047619,16.8132571 5.48571429,16.5009524 C5.33333333,16.44 5.16571429,16.4323048 5.00571429,16.4704 L2.31619048,17.1714286 L2.88761905,15.0914286 C2.94857143,14.8628571 2.90285714,14.6190476 2.75809524,14.4285714 C1.95047619,13.3542857 1.51619048,12.0894476 1.51619048,10.7561143 C1.51619048,7.32754286 4.40380952,4.53142857 7.94666667,4.53142857 C11.4895238,4.53142857 14.3771429,7.32 14.3771429,10.7561143 C14.3771429,14.192381 11.4971429,16.9733333 7.95428571,16.9733333 M7.95428571,3 C12.3428571,3 15.9009524,6.47428571 15.9009524,10.7485714 C15.9009524,15.022781 12.3352381,18.4971429 7.94666667,18.4971429 C6.98666667,18.4971429 6.04190476,18.3295238 5.15047619,18.0019048 L1.41714286,18.9771429 C1.35619048,18.992381 1.28761905,19 1.22666667,19 C1.02857143,19 0.83047619,18.9161905 0.685714286,18.7714286 C0.495238095,18.5733333 0.426666667,18.2914286 0.495238095,18.0323048 L1.32571429,15.0304762 C0.457142857,13.7580952 1.74971149e-13,12.287619 1.74971149e-13,10.7485714 C1.74971149e-13,6.47428571 3.56571429,3 7.95428571,3 Z M5.11998476,9.89520762 L9.08188952,9.89520762 C9.50093714,9.89520762 9.84379429,9.55235048 9.84379429,9.13330286 C9.84379429,8.71425524 9.50093714,8.3713981 9.08188952,8.3713981 L5.11998476,8.3713981 C4.70093714,8.3713981 4.35808,8.71425524 4.35808,9.13330286 C4.35808,9.55235048 4.70093714,9.89520762 5.11998476,9.89520762 Z M10.8800305,11.2894781 L5.11995429,11.2894781 C4.70090667,11.2894781 4.35804952,11.6323352 4.35804952,12.0513829 C4.35804952,12.4704305 4.70090667,12.8132876 5.11995429,12.8132876 L10.8800305,12.8132876 C11.2990781,12.8132876 11.6419352,12.4704305 11.6419352,12.0513829 C11.6419352,11.6323352 11.2990781,11.2894781 10.8800305,11.2894781 Z"></path>
                </g>
            </g>
        </g>
    </g>
</svg>