<?xml version="1.0" encoding="iso-8859-1"?>
<!-- Generator: Adobe Illustrator 19.0.0, SVG Export Plug-In . SVG Version: 6.00 Build 0)  -->
<svg version="1.1" id="Layer_1" xmlns="http://www.w3.org/2000/svg" xmlns:xlink="http://www.w3.org/1999/xlink" x="0px" y="0px"
	 viewBox="0 0 512 512" style="enable-background:new 0 0 512 512;" xml:space="preserve">
<rect x="107.355" y="112.959" style="fill:#F87F6E;" width="244.203" height="243.023"/>
<polygon style="fill:#4CD1B6;" points="500.203,255.705 500.203,355.982 351.558,355.982 351.558,164.866 441.217,164.866 
	441.217,235.237 "/>
<g>
	<circle style="fill:#ECF0F1;" cx="175.779" cy="366.599" r="32.442"/>
	<circle style="fill:#ECF0F1;" cx="400.516" cy="366.599" r="32.442"/>
</g>
<g>
	<path style="fill:#231F20;" d="M79.041,181.382c0-6.514-5.282-11.797-11.797-11.797H11.797C5.282,169.585,0,174.868,0,181.382
		s5.282,11.797,11.797,11.797h55.447C73.76,193.18,79.041,187.897,79.041,181.382z"/>
	<path style="fill:#231F20;" d="M79.041,228.571c0-6.514-5.282-11.797-11.797-11.797H35.392c-6.516,0-11.797,5.283-11.797,11.797
		s5.282,11.797,11.797,11.797h31.853C73.76,240.369,79.041,235.086,79.041,228.571z"/>
	<path style="fill:#231F20;" d="M79.041,275.76c0-6.514-5.282-11.797-11.797-11.797h-9.438c-6.516,0-11.797,5.283-11.797,11.797
		s5.282,11.797,11.797,11.797h9.438C73.76,287.558,79.041,282.275,79.041,275.76z"/>
	<path style="fill:#231F20;" d="M504.07,244.56l-51.056-17.717v-50.18h7.078c6.516,0,11.797-5.283,11.797-11.797
		s-5.282-11.797-11.797-11.797h-47.189v-21.235c0-6.514-5.282-11.797-11.797-11.797s-11.797,5.283-11.797,11.797v21.235h-25.954
		v-40.111c0-6.514-5.282-11.797-11.797-11.797H107.355c-6.516,0-11.797,5.283-11.797,11.797v231.226H79.041
		c-6.516,0-11.797,5.283-11.797,11.797s5.282,11.797,11.797,11.797h52.527c0.63,23.849,20.211,43.06,44.21,43.06
		s43.58-19.211,44.21-43.06h131.569h4.748c0.63,23.849,20.211,43.06,44.21,43.06c23.999,0,43.58-19.211,44.21-43.06h55.476
		c6.516,0,11.797-5.283,11.797-11.797V255.705C512,250.681,508.817,246.207,504.07,244.56z M175.779,387.244
		c-11.383,0-20.645-9.262-20.645-20.645c0-11.383,9.262-20.645,20.645-20.645c11.383,0,20.645,9.262,20.645,20.645
		C196.424,377.982,187.162,387.244,175.779,387.244z M339.76,164.866v179.318H213.897c-7.702-13.048-21.9-21.825-38.118-21.825
		s-30.416,8.777-38.118,21.825h-18.509V124.756H339.76V164.866z M400.516,387.244c-11.383,0-20.645-9.262-20.645-20.645
		c0-11.383,9.262-20.645,20.645-20.645c11.383,0,20.645,9.262,20.645,20.645C421.161,377.982,411.899,387.244,400.516,387.244z
		 M488.406,344.184h-49.771c-7.702-13.048-21.9-21.825-38.118-21.825c-15.569,0-29.275,8.091-37.161,20.281V176.664h66.065v46.009
		h-27.134c-6.516,0-11.797,5.283-11.797,11.797s5.282,11.797,11.797,11.797h34.769c0.099,0.038,0.193,0.08,0.294,0.116
		l51.057,17.716V344.184z"/>
</g>
<g>
</g>
<g>
</g>
<g>
</g>
<g>
</g>
<g>
</g>
<g>
</g>
<g>
</g>
<g>
</g>
<g>
</g>
<g>
</g>
<g>
</g>
<g>
</g>
<g>
</g>
<g>
</g>
<g>
</g>
</svg>
