<?xml version="1.0" encoding="UTF-8"?>
<svg width="13px" height="14px" viewBox="0 0 13 14" version="1.1" xmlns="http://www.w3.org/2000/svg" xmlns:xlink="http://www.w3.org/1999/xlink">
    <!-- Generator: Sketch 52.5 (67469) - http://www.bohemiancoding.com/sketch -->
    <title>magnifying glass</title>
    <desc>Created with Sketch.</desc>
    <g id="Design" stroke="none" stroke-width="1" fill="none" fill-rule="evenodd">
        <g id="product_details_desktop_1280" transform="translate(-547.000000, -25.000000)" fill="#FFFFFF" stroke="#FFFFFF" stroke-width="0.25">
            <g id="UI/Global/Navigation">
                <g id="search" transform="translate(286.000000, 16.000000)">
                    <path d="M270.381155,14.6482465 C270.381155,16.7070492 268.706341,18.3825717 266.64683,18.3825717 C264.588027,18.3825717 262.913213,16.7077577 262.913213,14.6482465 C262.913213,12.5887354 264.588027,10.9132129 266.64683,10.9132129 C268.706341,10.9132129 270.381155,12.5887354 270.381155,14.6482465 M262,14.6482465 C262,17.2107687 264.084307,19.2957846 266.646121,19.2957846 C267.66277,19.2957846 268.60503,18.9656394 269.370882,18.408785 L272.828197,21.8660999 C272.917464,21.9553666 273.034361,22 273.150549,22 C273.266738,22 273.384343,21.9553666 273.472901,21.8660999 C273.651435,21.6882749 273.651435,21.3992207 273.472901,21.2206872 L270.054552,17.8023379 C270.822529,16.9734325 271.292951,15.864683 271.292951,14.6482465 C271.292951,12.0850159 269.208643,10 266.644704,10 C264.084307,10 262,12.0857244 262,14.6482465" id="magnifying-glass"></path>
                </g>
            </g>
        </g>
    </g>
</svg>