<?xml version="1.0" encoding="UTF-8"?>
<svg width="15px" height="18px" viewBox="0 0 15 18" version="1.1" xmlns="http://www.w3.org/2000/svg" xmlns:xlink="http://www.w3.org/1999/xlink">
    <!-- Generator: Sketch 52.5 (67469) - http://www.bohemiancoding.com/sketch -->
    <title>stores</title>
    <desc>Created with Sketch.</desc>
    <g id="Design" stroke="none" stroke-width="1" fill="none" fill-rule="evenodd">
        <g id="product_details_desktop_1280" transform="translate(-1027.000000, -90.000000)" fill="#FFFFFF">
            <g id="UI/Global/Navigation">
                <g id="stores" transform="translate(1027.000000, 88.000000)">
                    <path d="M7.0266714,18.1613442 C5.06924151,15.9529618 1.5057153,11.3856254 1.5057153,9.0266714 C1.5057153,5.96505029 3.96505029,3.5057153 7.0266714,3.5057153 C10.0882925,3.5057153 12.5476275,5.96505029 12.5476275,9.0266714 C12.5476275,11.3856254 8.98410129,15.9529618 7.0266714,18.1613442 M7.0266714,2 C10.8913407,2 14.0533428,5.16200213 14.0533428,9.0266714 C14.0533428,12.6905786 8.23124364,19.0647734 7.57876701,19.7674405 L7.5285765,19.8176311 C7.22743344,20.0685836 6.77571885,20.0685836 6.47457579,19.7674405 C5.82209916,19.0647734 -2.30926389e-13,12.6905786 -2.30926389e-13,9.0266714 C-2.30926389e-13,5.16200213 3.16200213,2 7.0266714,2 Z M7.0266714,10.6827575 C6.07305171,10.6827575 5.32019406,9.92989982 5.32019406,8.97628013 C5.32019406,8.02266044 6.07305171,7.26980279 7.0266714,7.26980279 C7.98029109,7.26980279 8.73314874,8.02266044 8.73314874,8.97628013 C8.68295823,9.92989982 7.93010058,10.6827575 7.0266714,10.6827575 Z M7.0266714,5.814278 C5.27000355,5.814278 3.81447876,7.21961228 3.81447876,9.02647064 C3.81447876,10.7831385 5.21981304,12.2386633 7.0266714,12.2386633 C8.78333925,12.2386633 10.1886735,10.833329 10.238864,9.07666115 C10.238864,7.26980279 8.78333925,5.814278 7.0266714,5.814278 Z"></path>
                </g>
            </g>
        </g>
    </g>
</svg>