<svg xmlns="http://www.w3.org/2000/svg" xmlns:xlink="http://www.w3.org/1999/xlink">
	<symbol id="search" viewBox="0 0 100 100">
		<path id="magnifying-glass" d="M69.15,39.19A29.65,29.65,0,1,1,39.5,9.31,29.79,29.79,0,0,1,69.15,39.19m-66.55,0A37.08,37.08,0,0,0,39.49,76.37a36.46,36.46,0,0,0,21.63-7.1L88.58,96.93a3.6,3.6,0,0,0,5.12,0,3.68,3.68,0,0,0,0-5.16L66.55,64.42A37.21,37.21,0,0,0,39.48,2,37.09,37.09,0,0,0,2.6,39.19"/>
	</symbol>
	<symbol id="account" viewBox="0 0 18 18">
		<path d="M9,.65A8.35,8.35,0,1,0,17.35,9,8.36,8.36,0,0,0,9,.65Zm0,8a1.89,1.89,0,1,1,1.89-1.89A1.89,1.89,0,0,1,9,8.65ZM9,10a4.46,4.46,0,0,1,4.45,4.42,7,7,0,0,1-8.9,0A4.46,4.46,0,0,1,9,10Zm2.22-.89a3.2,3.2,0,0,0,1-2.34,3.23,3.23,0,0,0-6.46,0,3.2,3.2,0,0,0,1,2.34,5.81,5.81,0,0,0-3.42,4.06,7,7,0,1,1,11.28,0A5.81,5.81,0,0,0,11.22,9.1Z" />
	</symbol>
	<symbol id="cart" viewBox="0 0 18 18">
		<rect width="18" height="18" fill="none" /><path d="M15,4.73H12.85V4.35a3.85,3.85,0,0,0-7.7,0v.38H3a.74.74,0,0,0-.74.74V16.76A.74.74,0,0,0,3,17.5H15a.74.74,0,0,0,.74-.74V5.47A.74.74,0,0,0,15,4.73ZM6.63,4.35a2.37,2.37,0,1,1,4.74,0v.38H6.63ZM14.25,16H3.75V6.21h1.4V7.27a.74.74,0,1,0,1.48,0V6.21h4.74V7.27a.74.74,0,0,0,1.48,0V6.21h1.4Z"/>
	</symbol>
	<symbol id="stores" viewBox="0 0 18 18">
		<rect width="18" height="18" fill="none" /><path d="M9,.59A6.59,6.59,0,0,0,2.43,7.16c0,3.42,5.44,9.38,6.05,10a.72.72,0,0,0,1,0l0,0c.61-.65,6.05-6.61,6.05-10A6.59,6.59,0,0,0,9,.59Zm0,15.1C7.17,13.63,3.84,9.36,3.84,7.16a5.16,5.16,0,0,1,10.32,0C14.16,9.36,10.83,13.63,9,15.69Z"/><path d="M9,4.15A3,3,0,1,0,12,7.2,3,3,0,0,0,9,4.15ZM9,8.7a1.6,1.6,0,1,1,1.59-1.59A1.63,1.63,0,0,1,9,8.7Z"/>
	</symbol>
	<symbol id="contact" viewBox="0 0 18 18">
		<rect width="18" height="18" fill="none" /><path d="M9,.46A8.39,8.39,0,0,0,.51,8.73,8,8,0,0,0,1.93,13.3L1,16.51a.85.85,0,0,0,.2.79.86.86,0,0,0,.58.24l.2,0,4-1A8.63,8.63,0,0,0,9,17a8.39,8.39,0,0,0,8.49-8.27A8.39,8.39,0,0,0,9,.46ZM9,15.38a7,7,0,0,1-2.63-.51.89.89,0,0,0-.51,0L3,15.59l.61-2.22a.81.81,0,0,0-.13-.71A6.44,6.44,0,0,1,2.13,8.74,6.77,6.77,0,0,1,9,2.09a6.76,6.76,0,0,1,6.86,6.65A6.75,6.75,0,0,1,9,15.38Z"/><path d="M6,7.82h4.23a.82.82,0,0,0,0-1.63H6A.82.82,0,1,0,6,7.82Z"/><path d="M12.13,9.31H6a.82.82,0,1,0,0,1.63h6.15a.82.82,0,0,0,0-1.63Z"/>
	</symbol>
	<symbol id="chevron" viewBox="0 0 8 12">
		<path d="M15.7,7.41,14.3,6l-6,6,6,6,1.4-1.41L11.12,12Z" transform="translate(-8.3 -6)"/>
	</symbol>
	<symbol id="close" viewBox="0 0 24 24">
		<path d="M22.71,3.45,20.55,1.29,12,9.84,3.45,1.29,1.29,3.45,9.84,12,1.29,20.55l2.16,2.16L12,14.16l8.55,8.55,2.16-2.16L14.16,12Z"/><path d="M0,0H24V24H0Z" fill="none"/>
	</symbol>
	<symbol id="menu" viewBox="0 0 24 24">
		<path d="M0 0h24v24H0z" fill="none"/><path d="M3 18h18v-2H3v2zm0-5h18v-2H3v2zm0-7v2h18V6H3z"/>
	</symbol>
	<symbol id="add" viewBox="0 0 24 24">
		<path d="M19 13h-6v6h-2v-6H5v-2h6V5h2v6h6v2z"/><path d="M0 0h24v24H0z" fill="none"/>
	</symbol>
	<symbol id="remove" viewBox="0 0 24 24">
		<path d="M19 13H5v-2h14v2z"/><path d="M0 0h24v24H0z" fill="none"/>
	</symbol>
	<symbol id="trash" viewBox="0 0 24 24">
		<path d="M6 19c0 1.1.9 2 2 2h8c1.1 0 2-.9 2-2V7H6v12zM8 9h8v10H8V9zm7.5-5l-1-1h-5l-1 1H5v2h14V4z"/><path fill="none" d="M0 0h24v24H0V0z"/>
	</symbol>
	<symbol id="edit" viewBox="0 0 24 24">
		<path fill="none" d="M0 0h24v24H0V0z"/><path d="M3 17.25V21h3.75L17.81 9.94l-3.75-3.75L3 17.25zM5.92 19H5v-.92l9.06-9.06.92.92L5.92 19zM20.71 5.63l-2.34-2.34c-.2-.2-.45-.29-.71-.29s-.51.1-.7.29l-1.83 1.83 3.75 3.75 1.83-1.83c.39-.39.39-1.02 0-1.41z"/>
	</symbol>
	<symbol id="heart" viewBox="0 0 24 24">
		<path d="M0 0h24v24H0z" fill="none" stroke="none" /><path d="M12 21.35l-1.45-1.32C5.4 15.36 2 12.28 2 8.5 2 5.42 4.42 3 7.5 3c1.74 0 3.41.81 4.5 2.09C13.09 3.81 14.76 3 16.5 3 19.58 3 22 5.42 22 8.5c0 3.78-3.4 6.86-8.55 11.54L12 21.35z"/>
	</symbol>
	<symbol id="full-star" viewBox="0 0 24 24">
		<path d="M0 0h24v24H0z" fill="none"/><path d="M12 17.27L18.18 21l-1.64-7.03L22 9.24l-7.19-.61L12 2 9.19 8.63 2 9.24l5.46 4.73L5.82 21z"/>
	</symbol>
	<symbol id="half-star" viewBox="0 0 24 24">
		<path d="M0 0h24v24H0z" fill="none"/><path d="M22,9.24l-7.19-.62L12,2,9.19,8.63,2,9.24,7.46,14,5.82,21,12,17.27,18.18,21l-1.63-7ZM12,15.4V6.1l1.71,4,4.38.38L14.77,13.4l1,4.28Z"/>
	</symbol>
	<symbol id="empty-star" viewBox="0 0 24 24">
		<path d="M0 0h24v24H0z" fill="none"/><path d="M22 9.24l-7.19-.62L12 2 9.19 8.63 2 9.24l5.46 4.73L5.82 21 12 17.27 18.18 21l-1.63-7.03L22 9.24zM12 15.4l-3.76 2.27 1-4.28-3.32-2.88 4.38-.38L12 6.1l1.71 4.04 4.38.38-3.32 2.88 1 4.28L12 15.4z"/>
	</symbol>
	<symbol id="zoom-out" viewBox="0 0 24 24">
		<path d="M0 0h24v24H0z" fill="none"/>
		<polygon points="15 3 17.3 5.3 14.41 8.17 15.83 9.59 18.7 6.7 21 9 21 3 15 3" />
    <polygon points="3 9 5.3 6.7 8.17 9.59 9.59 8.17 6.7 5.3 9 3 3 3 3 9" />
    <polygon points="9 21 6.7 18.7 9.59 15.83 8.17 14.41 5.3 17.3 3 15 3 21 9 21" />
    <polygon points="21 15 18.7 17.3 15.83 14.41 14.41 15.83 17.3 18.7 15 21 21 21 21 15" />
	</symbol>
	<symbol id="ruler" viewBox="0 0 20 20">
		<path d="M0,0H20V20H0Z" fill="none" /><path d="M17.36,5H2.64A1.66,1.66,0,0,0,1,6.67v6.66A1.66,1.66,0,0,0,2.64,15H17.36A1.66,1.66,0,0,0,19,13.33V6.67A1.66,1.66,0,0,0,17.36,5Zm0,8.33H2.64V6.67H4.27V10H5.91V6.67H7.55V10H9.18V6.67h1.64V10h1.63V6.67h1.64V10h1.64V6.67h1.63Z"/>
	</symbol>
	<symbol id="pencil" viewBox="0 0 14 14">
		<path d="M0,0H20V20H0Z" fill="none" /><path d="M12.2143089,0.661128932 C11.7925414,0.237894397 11.2196207,0 10.6221131,0 C10.0246056,0 9.45168484,0.237894397 9.02991733,0.661128932 L0.649347858,9.04731792 C0.533284718,9.16757029 0.460757461,9.32317422 0.443298989,9.4893864 L0.00497684839,13.164549 C-0.0197062505,13.3777192 0.0481968549,13.5912415 0.19147576,13.7509975 C0.334754665,13.9107535 0.539655649,14.0014077 0.754245464,13.9999835 L0.842284527,13.9999835 L4.51182757,13.557915 C4.67898368,13.5384003 4.83470299,13.46318 4.95389606,13.3443734 L13.340085,4.96567713 C13.7633196,4.54390962 14.001214,3.9709889 14.001214,3.37348132 C14.001214,2.77597374 13.7633196,2.20305303 13.340085,1.78128551 L12.2143089,0.661128932 Z M4.07912495,12.1080802 L1.60466534,12.3965486 L1.89500693,9.92208902 L7.98843395,3.82678883 L10.1744251,6.01278002 L4.07912495,12.1080802 Z M12.2798699,3.90546204 L11.2327671,4.95256493 L9.04864904,2.76844691 L10.0957519,1.72134402 C10.2362909,1.58064858 10.4269967,1.50159354 10.6258595,1.50159354 C10.8247223,1.50159354 11.015428,1.58064858 11.155967,1.72134402 L12.2798699,2.84524695 C12.4205654,2.98578596 12.4996204,3.17649167 12.4996204,3.37535449 C12.4996204,3.57421731 12.4205654,3.76492303 12.2798699,3.90546204 Z"/>
	</symbol>
	<symbol id="lock" viewBox="0 0 24 24">
		<path d="M0 0h24v24H0z" fill="none" /><path d="M18 8h-1V6c0-2.76-2.24-5-5-5S7 3.24 7 6v2H6c-1.1 0-2 .9-2 2v10c0 1.1.9 2 2 2h12c1.1 0 2-.9 2-2V10c0-1.1-.9-2-2-2zm-6 9c-1.1 0-2-.9-2-2s.9-2 2-2 2 .9 2 2-.9 2-2 2zm3.1-9H8.9V6c0-1.71 1.39-3.1 3.1-3.1 1.71 0 3.1 1.39 3.1 3.1v2z"/>
	</symbol>
</svg>